<svg aria-hidden="true" style="position: absolute; width: 0; height: 0; overflow: hidden;" version="1.1" xmlns="http://www.w3.org/2000/svg" xmlns:xlink="http://www.w3.org/1999/xlink">
<defs>
<symbol id="icon-1" viewBox="0 0 32 32">
<path fill="#95e1e1" style="fill: var(--color1, #95e1e1)" d="M32 16c0 8.837-7.163 16-16 16s-16-7.163-16-16c0-8.837 7.163-16 16-16s16 7.163 16 16z"></path>
<path fill="#fff" style="fill: var(--color2, #fff)" d="M17.955 21.333h-1.713v-6.883c0-0.822 0.019-1.473 0.058-1.954-0.112 0.117-0.25 0.246-0.416 0.386-0.16 0.141-0.705 0.588-1.633 1.342l-0.86-1.086 3.135-2.465h1.429v10.66z"></path>
</symbol>
<symbol id="icon-2" viewBox="0 0 32 32">
<path fill="#95e1e1" style="fill: var(--color1, #95e1e1)" d="M32 16c0 8.837-7.163 16-16 16s-16-7.163-16-16c0-8.837 7.163-16 16-16s16 7.163 16 16z"></path>
<path fill="#fff" style="fill: var(--color2, #fff)" d="M20.15 21.333h-7.226v-1.298l2.749-2.764c0.812-0.831 1.349-1.419 1.611-1.765 0.267-0.35 0.462-0.678 0.583-0.984s0.182-0.634 0.182-0.984c0-0.481-0.146-0.86-0.438-1.137-0.287-0.277-0.685-0.416-1.196-0.416-0.408 0-0.804 0.075-1.188 0.226-0.379 0.151-0.819 0.423-1.32 0.817l-0.926-1.13c0.593-0.501 1.169-0.856 1.728-1.065s1.155-0.313 1.786-0.313c0.992 0 1.786 0.26 2.384 0.78 0.598 0.515 0.897 1.21 0.897 2.085 0 0.481-0.087 0.938-0.262 1.371-0.17 0.433-0.435 0.88-0.795 1.342-0.355 0.457-0.948 1.077-1.779 1.859l-1.852 1.794v0.073h5.060v1.509z"></path>
</symbol>
<symbol id="icon-3" viewBox="0 0 32 32">
<path fill="#95e1e1" style="fill: var(--color1, #95e1e1)" d="M32 16c0 8.837-7.163 16-16 16s-16-7.163-16-16c0-8.837 7.163-16 16-16s16 7.163 16 16z"></path>
<path fill="#fff" style="fill: var(--color2, #fff)" d="M19.749 13.123c0 0.676-0.197 1.24-0.591 1.692-0.394 0.447-0.948 0.749-1.663 0.904v0.058c0.856 0.107 1.497 0.374 1.925 0.802 0.428 0.423 0.642 0.987 0.642 1.692 0 1.026-0.362 1.818-1.087 2.377-0.724 0.554-1.755 0.831-3.092 0.831-1.181 0-2.178-0.192-2.99-0.576v-1.524c0.452 0.224 0.931 0.396 1.436 0.518s0.992 0.182 1.458 0.182c0.826 0 1.444-0.153 1.852-0.459s0.612-0.78 0.612-1.422c0-0.569-0.226-0.987-0.678-1.254s-1.162-0.401-2.129-0.401h-0.926v-1.393h0.941c1.701 0 2.552-0.588 2.552-1.765 0-0.457-0.148-0.809-0.445-1.057s-0.734-0.372-1.313-0.372c-0.403 0-0.792 0.058-1.167 0.175-0.374 0.112-0.817 0.333-1.327 0.664l-0.838-1.196c0.977-0.719 2.112-1.079 3.405-1.079 1.074 0 1.913 0.231 2.516 0.693s0.904 1.099 0.904 1.91z"></path>
</symbol>
<symbol id="icon-4" viewBox="0 0 32 32">
<path fill="#95e1e1" style="fill: var(--color1, #95e1e1)" d="M32 16c0 8.837-7.163 16-16 16s-16-7.163-16-16c0-8.837 7.163-16 16-16s16 7.163 16 16z"></path>
<path fill="#fff" style="fill: var(--color2, #fff)" d="M20.529 19.007h-1.436v2.326h-1.67v-2.326h-4.871v-1.32l4.871-7.044h1.67v6.942h1.436v1.422zM17.423 17.585v-2.676c0-0.953 0.024-1.733 0.073-2.341h-0.058c-0.136 0.321-0.35 0.71-0.642 1.167l-2.647 3.85h3.274z"></path>
</symbol>
<symbol id="icon-5" viewBox="0 0 32 32">
<path fill="#95e1e1" style="fill: var(--color1, #95e1e1)" d="M32 16c0 8.837-7.163 16-16 16s-16-7.163-16-16c0-8.837 7.163-16 16-16s16 7.163 16 16z"></path>
<path fill="#fff" style="fill: var(--color2, #fff)" d="M16.541 14.676c1.074 0 1.925 0.284 2.552 0.853s0.941 1.344 0.941 2.326c0 1.137-0.357 2.027-1.072 2.669-0.71 0.637-1.721 0.955-3.033 0.955-1.191 0-2.127-0.192-2.807-0.576v-1.553c0.394 0.224 0.846 0.396 1.356 0.518s0.984 0.182 1.422 0.182c0.773 0 1.361-0.173 1.765-0.518s0.605-0.851 0.605-1.517c0-1.274-0.812-1.91-2.435-1.91-0.228 0-0.511 0.024-0.846 0.073-0.335 0.044-0.63 0.095-0.882 0.153l-0.766-0.452 0.408-5.206h5.542v1.524h-4.032l-0.241 2.64c0.17-0.029 0.377-0.063 0.62-0.102 0.248-0.039 0.549-0.058 0.904-0.058z"></path>
</symbol>
<symbol id="icon-6" viewBox="0 0 32 32">
<path fill="#95e1e1" style="fill: var(--color1, #95e1e1)" d="M32 16c0 8.837-7.163 16-16 16s-16-7.163-16-16c0-8.837 7.163-16 16-16s16 7.163 16 16z"></path>
<path fill="#fff" style="fill: var(--color2, #fff)" d="M12.953 16.791c0-4.171 1.699-6.256 5.097-6.256 0.535 0 0.987 0.041 1.356 0.124v1.429c-0.369-0.107-0.797-0.16-1.283-0.16-1.142 0-2 0.306-2.574 0.919s-0.885 1.594-0.933 2.946h0.088c0.228-0.394 0.549-0.698 0.962-0.911 0.413-0.219 0.899-0.328 1.458-0.328 0.967 0 1.721 0.297 2.26 0.89s0.809 1.398 0.809 2.414c0 1.118-0.314 2.003-0.941 2.654-0.622 0.647-1.473 0.97-2.552 0.97-0.763 0-1.427-0.182-1.991-0.547-0.564-0.369-0.999-0.904-1.305-1.604-0.301-0.705-0.452-1.551-0.452-2.538zM16.672 20.065c0.588 0 1.040-0.19 1.356-0.569 0.321-0.379 0.481-0.921 0.481-1.626 0-0.612-0.151-1.094-0.452-1.444-0.297-0.35-0.744-0.525-1.342-0.525-0.369 0-0.71 0.080-1.021 0.241-0.311 0.156-0.557 0.372-0.737 0.649-0.18 0.272-0.27 0.552-0.27 0.838 0 0.685 0.185 1.264 0.554 1.735 0.374 0.467 0.851 0.7 1.429 0.7z"></path>
</symbol>
<symbol id="icon-7" viewBox="0 0 32 32">
<path fill="#95e1e1" style="fill: var(--color1, #95e1e1)" d="M32 16c0 8.837-7.163 16-16 16s-16-7.163-16-16c0-8.837 7.163-16 16-16s16 7.163 16 16z"></path>
<path fill="#fff" style="fill: var(--color2, #fff)" d="M14.134 21.333l4.214-9.136h-5.542v-1.509h7.372v1.196l-4.193 9.45h-1.852z"></path>
</symbol>
<symbol id="icon-8" viewBox="0 0 32 32">
<path fill="#95e1e1" style="fill: var(--color1, #95e1e1)" d="M32 16c0 8.837-7.163 16-16 16s-16-7.163-16-16c0-8.837 7.163-16 16-16s16 7.163 16 16z"></path>
<path fill="#fff" style="fill: var(--color2, #fff)" d="M16.526 10.534c1.011 0 1.811 0.233 2.399 0.7 0.588 0.462 0.882 1.082 0.882 1.859 0 1.094-0.656 1.964-1.969 2.61 0.836 0.418 1.429 0.858 1.779 1.32 0.355 0.462 0.532 0.977 0.532 1.546 0 0.88-0.323 1.585-0.97 2.115s-1.521 0.795-2.625 0.795c-1.157 0-2.054-0.248-2.691-0.744s-0.955-1.198-0.955-2.107c0-0.593 0.165-1.125 0.496-1.597 0.335-0.476 0.882-0.899 1.641-1.269-0.651-0.389-1.116-0.8-1.393-1.232s-0.416-0.919-0.416-1.458c0-0.773 0.304-1.388 0.911-1.845 0.608-0.462 1.4-0.693 2.377-0.693zM14.55 18.57c0 0.506 0.178 0.899 0.532 1.181 0.355 0.277 0.836 0.416 1.444 0.416 0.627 0 1.113-0.143 1.458-0.43 0.35-0.292 0.525-0.685 0.525-1.181 0-0.394-0.16-0.753-0.481-1.079s-0.807-0.627-1.458-0.904l-0.212-0.095c-0.642 0.282-1.103 0.593-1.385 0.933-0.282 0.335-0.423 0.722-0.423 1.159zM16.511 11.854c-0.486 0-0.877 0.121-1.174 0.365-0.297 0.238-0.445 0.564-0.445 0.977 0 0.253 0.053 0.479 0.16 0.678s0.262 0.382 0.467 0.547c0.204 0.16 0.549 0.355 1.035 0.583 0.583-0.258 0.994-0.527 1.232-0.809 0.243-0.287 0.365-0.62 0.365-0.999 0-0.413-0.151-0.739-0.452-0.977-0.297-0.243-0.693-0.365-1.189-0.365z"></path>
</symbol>
<symbol id="icon-9" viewBox="0 0 32 32">
<path fill="#95e1e1" style="fill: var(--color1, #95e1e1)" d="M32 16c0 8.837-7.163 16-16 16s-16-7.163-16-16c0-8.837 7.163-16 16-16s16 7.163 16 16z"></path>
<path fill="#fff" style="fill: var(--color2, #fff)" d="M20.135 15.223c0 2.1-0.423 3.668-1.269 4.703s-2.119 1.553-3.821 1.553c-0.647 0-1.111-0.039-1.393-0.117v-1.436c0.433 0.122 0.868 0.182 1.305 0.182 1.157 0 2.020-0.311 2.589-0.933s0.88-1.599 0.933-2.931h-0.087c-0.287 0.438-0.634 0.753-1.043 0.948-0.403 0.194-0.877 0.292-1.422 0.292-0.943 0-1.684-0.294-2.224-0.882s-0.809-1.395-0.809-2.421c0-1.113 0.311-1.998 0.933-2.654 0.627-0.661 1.48-0.992 2.559-0.992 0.758 0 1.419 0.185 1.983 0.554s0.999 0.907 1.305 1.611c0.306 0.7 0.459 1.541 0.459 2.523zM16.417 11.956c-0.593 0-1.048 0.194-1.364 0.583-0.316 0.384-0.474 0.926-0.474 1.626 0 0.608 0.146 1.086 0.437 1.436 0.297 0.345 0.744 0.518 1.342 0.518 0.579 0 1.065-0.173 1.458-0.518s0.591-0.749 0.591-1.21c0-0.433-0.085-0.836-0.255-1.21-0.165-0.379-0.399-0.678-0.7-0.897s-0.646-0.328-1.035-0.328z"></path>
</symbol>
<symbol id="icon-advantage1" viewBox="0 0 32 32">
<path fill="#b798e0" style="fill: var(--color3, #b798e0)" d="M23.269 0h2.286v-2.286h-2.286v2.286zM23.269 32v2.286h2.286v-2.286h-2.286zM14.217 32h-2.286v2.286h2.286v-2.286zM14.217 6.994h2.286v-2.286h-2.286v2.286zM8.274 6.994h-2.286v2.286h2.286v-2.286zM8.274 0v-2.286h-2.286v2.286h2.286zM20.983 0v32h4.571v-32h-4.571zM23.269 29.714h-9.051v4.571h9.051v-4.571zM16.503 32v-25.006h-4.571v25.006h4.571zM14.217 4.709h-5.943v4.571h5.943v-4.571zM10.56 6.994v-6.994h-4.571v6.994h4.571zM8.274 2.286h14.994v-4.571h-14.994v4.571z"></path>
</symbol>
<symbol id="icon-advantage2" viewBox="0 0 32 32">
<path fill="#b798e0" style="fill: var(--color3, #b798e0)" d="M29.023 24.99h2.233v-2.233h-2.233v2.233zM29.023 32v2.233h2.233v-2.233h-2.233zM4.688 32h-2.233v2.233h2.233v-2.233zM4.688 26.463l-1.525-1.631-0.708 0.662v0.969h2.233zM16.387 15.524l1.525 1.631 0.005-0.005 0.005-0.005-1.535-1.621zM18.664 12.8l1.981 1.030 0.008-0.016 0.008-0.016-1.997-0.998zM18.218 8.112v0zM12.011 8.067l1.047 1.972 0.011-0.006 0.011-0.006-1.069-1.96zM9.645 10.3l-1.088 1.95 1.84 1.026 1.131-1.778-1.884-1.199zM3.081 6.638l-1.912-1.153-1.192 1.978 2.017 1.125 1.088-1.95zM8.216 1.86v0zM22.326 1.28l-0.875 2.054 0.012 0.005 0.863-2.059zM26.612 4.629l-1.834 1.273 0.015 0.021 0.015 0.021 1.804-1.315zM27.059 14.452l-2.005-0.983-0.004 0.008-0.004 0.008 2.013 0.966zM22.861 19.542l-1.506-1.648-0.004 0.004-0.004 0.004 1.515 1.64zM16.967 24.99l-1.515-1.64-4.189 3.872h5.705v-2.233zM26.791 24.99v7.010h4.465v-7.010h-4.465zM29.023 29.767h-24.335v4.465h24.335v-4.465zM6.921 32v-5.537h-4.465v5.537h4.465zM6.213 28.094l11.699-10.94-3.050-3.261-11.699 10.94 3.050 3.261zM17.922 17.144c1.185-1.122 2.161-2.235 2.723-3.314l-3.962-2.060c-0.213 0.409-0.754 1.112-1.832 2.133l3.071 3.242zM20.661 13.798c0.523-1.047 0.816-2.161 0.816-3.32h-4.465c0 0.388-0.094 0.822-0.345 1.323l3.994 1.997zM21.477 10.478c0-1.574-0.564-3.036-1.838-4.088l-2.844 3.442c0.096 0.079 0.216 0.195 0.216 0.645h4.465zM19.64 6.39c-1.237-1.021-2.823-1.36-4.413-1.36v4.465c1.029 0 1.437 0.227 1.57 0.337l2.844-3.442zM15.226 5.031c-1.52 0-2.961 0.355-4.284 1.076l2.138 3.92c0.642-0.35 1.344-0.531 2.146-0.531v-4.465zM10.964 6.095c-1.32 0.701-2.387 1.724-3.203 3.006l3.767 2.397c0.435-0.683 0.946-1.149 1.53-1.46l-2.095-3.943zM10.732 8.35l-6.564-3.661-2.175 3.899 6.564 3.661 2.175-3.899zM4.993 7.791c0.999-1.657 2.401-2.973 4.264-3.955l-2.082-3.95c-2.543 1.34-4.564 3.209-6.006 5.6l3.824 2.306zM9.257 3.836c1.822-0.96 4.055-1.484 6.773-1.484v-4.465c-3.295 0-6.271 0.637-8.855 1.999l2.082 3.95zM16.030 2.352c2.141 0 3.932 0.348 5.42 0.982l1.751-4.108c-2.143-0.914-4.55-1.34-7.171-1.34v4.465zM21.462 3.339c1.505 0.631 2.576 1.496 3.316 2.563l3.669-2.545c-1.284-1.851-3.071-3.218-5.257-4.135l-1.727 4.118zM24.808 5.944c0.741 1.017 1.134 2.215 1.134 3.686h4.465c0-2.339-0.649-4.475-1.991-6.316l-3.608 2.631zM25.942 9.63c0 1.357-0.295 2.629-0.888 3.84l4.009 1.965c0.895-1.825 1.344-3.769 1.344-5.805h-4.465zM25.046 13.486c-0.533 1.11-1.69 2.579-3.691 4.409l3.013 3.295c2.166-1.981 3.808-3.906 4.703-5.772l-4.025-1.932zM21.346 17.903l-5.894 5.447 3.031 3.279 5.894-5.447-3.031-3.279zM16.967 27.222h12.056v-4.465h-12.056v4.465z"></path>
</symbol>
<symbol id="icon-advantage3" viewBox="0 0 32 32">
<path fill="#b798e0" style="fill: var(--color3, #b798e0)" d="M20.897 12.502l-1.635-1.52-2.698 2.903 3.881 0.803 0.452-2.186zM26.835 15.717l-1.7 1.448 0.014 0.017 0.015 0.017 1.67-1.481zM27.416 26.612l-1.879-1.206-0.008 0.013-0.008 0.013 1.895 1.18zM22.861 30.452l0.951 2.020 0.006-0.003 0.006-0.003-0.963-2.014zM8.752 31.077l-0.541 2.166 0.007 0.002 0.534-2.168zM3.17 28.8l-2.010-0.971-0.873 1.806 1.703 1.060 1.18-1.895zM6.385 22.147l1.259-1.844-2.141-1.462-1.128 2.334 2.010 0.971zM10.493 24.067l-0.63 2.142 0.011 0.003 0.619-2.145zM18.664 23.888v0zM11.52 18.441h-2.233v2.233h2.233v-2.233zM11.52 12.86l-1.638-1.517-0.594 0.642v0.875h2.233zM17.101 6.832l1.638 1.517 3.472-3.749h-5.11v2.233zM4.778 6.832h-2.233v2.233h2.233v-2.233zM4.778 0v-2.233h-2.233v2.233h2.233zM27.371 0h2.233v-2.233h-2.233v2.233zM27.371 5.537l1.635 1.52 0.597-0.643v-0.877h-2.233zM20.444 14.689c2.229 0.461 3.718 1.334 4.691 2.476l3.399-2.895c-1.765-2.072-4.235-3.343-7.186-3.953l-0.905 4.373zM25.165 17.198c1.009 1.138 1.536 2.519 1.536 4.279h4.465c0-2.765-0.872-5.224-2.661-7.241l-3.341 2.963zM26.701 21.477c0 1.411-0.38 2.706-1.165 3.929l3.758 2.411c1.239-1.931 1.872-4.060 1.872-6.34h-4.465zM25.521 25.432c-0.712 1.143-1.866 2.166-3.622 3.006l1.927 4.028c2.351-1.124 4.233-2.662 5.486-4.674l-3.79-2.36zM21.911 28.432c-1.643 0.773-3.81 1.216-6.595 1.216v4.465c3.228 0 6.091-0.509 8.497-1.641l-1.901-4.040zM15.315 29.648c-2.020 0-4.028-0.245-6.029-0.739l-1.069 4.335c2.345 0.578 4.712 0.869 7.098 0.869v-4.465zM9.293 28.911c-1.959-0.49-3.596-1.168-4.943-2.007l-2.36 3.79c1.808 1.126 3.892 1.966 6.22 2.548l1.083-4.332zM5.18 29.771l3.215-6.653-4.020-1.943-3.215 6.653 4.020 1.943zM5.126 23.991c1.426 0.974 3.011 1.71 4.737 2.218l1.26-4.284c-1.31-0.385-2.464-0.929-3.479-1.622l-2.518 3.687zM9.874 26.212c1.733 0.5 3.459 0.757 5.173 0.757v-4.465c-1.263 0-2.572-0.189-3.936-0.582l-1.238 4.29zM15.047 26.969c1.766 0 3.437-0.325 4.811-1.195l-2.389-3.772c-0.412 0.261-1.152 0.502-2.422 0.502v4.465zM19.859 25.774c1.528-0.968 2.378-2.477 2.378-4.297h-4.465c0 0.193-0.038 0.272-0.054 0.3-0.016 0.029-0.069 0.112-0.248 0.225l2.389 3.772zM22.236 21.477c0-1.709-0.734-3.211-2.229-4.162-1.324-0.841-3.024-1.107-4.781-1.107v4.465c1.428 0 2.117 0.24 2.386 0.411 0.056 0.036 0.084 0.062 0.097 0.075s0.016 0.020 0.020 0.026c0.003 0.006 0.043 0.081 0.043 0.291h4.465zM15.226 16.208h-3.706v4.465h3.706v-4.465zM13.753 18.441v-5.581h-4.465v5.581h4.465zM13.158 14.376l5.581-6.028-3.276-3.034-5.581 6.028 3.276 3.034zM17.101 4.599h-12.324v4.465h12.324v-4.465zM7.010 6.832v-6.832h-4.465v6.832h4.465zM4.778 2.233h22.593v-4.465h-22.593v4.465zM25.139 0v5.537h4.465v-5.537h-4.465zM25.736 4.017l-6.474 6.966 3.271 3.040 6.474-6.966-3.271-3.040z"></path>
</symbol>
<symbol id="icon-advantage4" viewBox="0 0 32 32">
<path fill="#b798e0" style="fill: var(--color3, #b798e0)" d="M31.345 25.874v2.286h2.286v-2.286h-2.286zM26.59 25.874v-2.286h-2.286v2.286h2.286zM26.59 32v2.286h2.286v-2.286h-2.286zM17.768 32h-2.286v2.286h2.286v-2.286zM17.768 25.874h2.286v-2.286h-2.286v2.286zM0.853 25.874h-2.286v2.286h2.286v-2.286zM0.853 19.977l-1.856-1.334-0.429 0.598v0.736h2.286zM15.208 0v-2.286h-1.172l-0.684 0.952 1.856 1.334zM24.579 0l1.875 1.307 2.503-3.592h-4.379v2.286zM11.55 18.697l-1.875-1.307-2.503 3.592h4.379v-2.286zM18.042 18.697v2.286h2.286v-2.286h-2.286zM18.042 13.257v-2.286h-2.286v2.286h2.286zM26.59 13.257h2.286v-2.286h-2.286v2.286zM26.59 18.697h-2.286v2.286h2.286v-2.286zM31.345 18.697h2.286v-2.286h-2.286v2.286zM31.345 23.589h-4.754v4.571h4.754v-4.571zM24.305 25.874v6.126h4.571v-6.126h-4.571zM26.59 29.714h-8.823v4.571h8.823v-4.571zM20.053 32v-6.126h-4.571v6.126h4.571zM17.768 23.589h-16.914v4.571h16.914v-4.571zM3.139 25.874v-5.897h-4.571v5.897h4.571zM2.71 21.311l14.354-19.977-3.712-2.668-14.354 19.977 3.712 2.668zM15.208 2.286h9.371v-4.571h-9.371v4.571zM22.704-1.307l-13.029 18.697 3.751 2.614 13.029-18.697-3.751-2.614zM11.55 20.983h6.491v-4.571h-6.491v4.571zM20.328 18.697v-5.44h-4.571v5.44h4.571zM18.042 15.543h8.549v-4.571h-8.549v4.571zM24.305 13.257v5.44h4.571v-5.44h-4.571zM26.59 20.983h4.754v-4.571h-4.754v4.571zM29.059 18.697v7.177h4.571v-7.177h-4.571z"></path>
</symbol>
<symbol id="icon-advantage5" viewBox="0 0 32 32">
<path fill="#b798e0" style="fill: var(--color3, #b798e0)" d="M25.511 14.065l-1.453 1.695 0.012 0.010 1.441-1.705zM27.163 26.567l-1.899-1.174-0.006 0.010 1.905 1.164zM22.608 30.452l0.951 2.020 0.006-0.003 0.006-0.003-0.963-2.014zM8.499 31.077l-0.541 2.166 0.007 0.002 0.534-2.168zM2.962 28.8l-2.015-0.96-0.851 1.786 1.67 1.060 1.196-1.885zM6.132 22.147l1.238-1.858-2.145-1.43-1.109 2.327 2.015 0.96zM10.24 24.067l-0.642 2.138 0.012 0.003 0.63-2.142zM18.411 23.888l1.195 1.886 0.016-0.010-1.21-1.876zM18.456 19.066v0zM5.239 18.262l-2.224-0.19-0.207 2.423h2.432v-2.233zM6.802 0v-2.233h-2.050l-0.175 2.042 2.224 0.19zM26.716 0h2.233v-2.233h-2.233v2.233zM26.716 6.832v2.233h2.233v-2.233h-2.233zM14.125 6.832v-2.233h-2.044l-0.18 2.036 2.224 0.196zM13.723 11.386l-2.224-0.196-0.214 2.429h2.438v-2.233zM15.821 13.619c4.142 0 6.738 0.857 8.236 2.142l2.906-3.39c-2.669-2.287-6.532-3.217-11.142-3.217v4.465zM24.070 15.77c1.57 1.327 2.379 3.063 2.379 5.439h4.465c0-3.577-1.305-6.604-3.962-8.849l-2.882 3.41zM26.448 21.209c0 1.522-0.392 2.902-1.185 4.184l3.798 2.348c1.231-1.992 1.852-4.185 1.852-6.532h-4.465zM25.258 25.403c-0.714 1.168-1.866 2.199-3.613 3.035l1.927 4.028c2.361-1.129 4.245-2.688 5.496-4.735l-3.81-2.328zM21.658 28.432c-1.643 0.773-3.81 1.216-6.595 1.216v4.465c3.228 0 6.091-0.509 8.497-1.641l-1.901-4.040zM15.062 29.648c-2.020 0-4.028-0.245-6.029-0.739l-1.069 4.335c2.345 0.578 4.712 0.869 7.098 0.869v-4.465zM9.040 28.911c-1.957-0.489-3.572-1.165-4.882-1.996l-2.393 3.77c1.786 1.134 3.862 1.976 6.192 2.558l1.083-4.332zM4.977 29.76l3.17-6.653-4.031-1.921-3.17 6.653 4.031 1.921zM4.894 24.005c1.44 0.96 3.012 1.693 4.705 2.201l1.283-4.277c-1.284-0.385-2.451-0.932-3.511-1.639l-2.477 3.715zM9.61 26.209c1.714 0.504 3.444 0.76 5.184 0.76v-4.465c-1.296 0-2.602-0.19-3.924-0.579l-1.26 4.284zM14.794 26.969c1.766 0 3.437-0.325 4.811-1.195l-2.389-3.772c-0.412 0.261-1.152 0.502-2.422 0.502v4.465zM19.622 25.764c1.519-0.98 2.406-2.484 2.406-4.332h-4.465c0 0.18-0.036 0.26-0.058 0.299-0.025 0.044-0.095 0.146-0.304 0.281l2.421 3.752zM22.028 21.433c0-1.826-0.858-3.341-2.423-4.281l-2.297 3.829c0.166 0.099 0.204 0.167 0.21 0.179s0.045 0.079 0.045 0.273h4.465zM19.604 17.152c-1.46-0.876-3.587-1.122-5.882-1.122v4.465c2.23 0 3.258 0.29 3.584 0.486l2.297-3.829zM13.723 16.030h-8.484v4.465h8.484v-4.465zM7.463 18.453l1.563-18.262-4.449-0.381-1.563 18.262 4.449 0.381zM6.802 2.233h19.914v-4.465h-19.914v4.465zM24.484 0v6.832h4.465v-6.832h-4.465zM26.716 4.599h-12.592v4.465h12.592v-4.465zM11.901 6.635l-0.402 4.554 4.448 0.392 0.402-4.554-4.448-0.392zM13.723 13.619h2.099v-4.465h-2.099v4.465z"></path>
</symbol>
<symbol id="icon-advantage6" viewBox="0 0 32 32">
<path fill="#b798e0" style="fill: var(--color3, #b798e0)" d="M23.84 13.033l-0.99 1.944 0.014 0.007 0.014 0.007 0.961-1.959zM27.636 16.436l-1.848 1.16 0.013 0.021 0.014 0.021 1.821-1.202zM27.462 26.953l-1.81-1.218-0.005 0.008 1.815 1.21zM23.142 30.618l0.924 1.976 0.007-0.003 0.007-0.003-0.938-1.97zM6.735 28v0zM4.945 7.84l-1.92-1.037-0.004 0.008 1.924 1.029zM24.145 0.684v0zM28.16 2.342l1.946 0.987 0.881-1.738-1.628-1.071-1.199 1.823zM25.018 8.538l-1.258 1.782 2.062 1.456 1.142-2.252-1.946-0.987zM14.022 8.8v0zM11.665 14.080l-2.173-0.193-0.476 5.376 4.079-3.535-1.429-1.649zM19.52 24.684l-1.45-1.631-0.015 0.014-0.015 0.014 1.48 1.603zM19.52 19.055l-1.48 1.603 0.015 0.014 0.015 0.014 1.45-1.631zM13.455 19.098l1.45 1.631 0.017-0.015 0.016-0.015-1.482-1.601zM13.411 24.684l-1.512 1.573 0.031 0.030 0.032 0.028 1.45-1.631zM18.56 13.993c1.6 0 3.018 0.337 4.29 0.984l1.98-3.889c-1.928-0.981-4.030-1.459-6.27-1.459v4.364zM22.879 14.991c1.243 0.61 2.198 1.471 2.91 2.605l3.696-2.319c-1.15-1.834-2.726-3.242-4.683-4.203l-1.923 3.917zM25.815 17.638c0.704 1.068 1.079 2.315 1.079 3.816h4.364c0-2.28-0.585-4.378-1.801-6.22l-3.642 2.404zM26.895 21.455c0 1.664-0.426 3.066-1.243 4.28l3.621 2.436c1.336-1.986 1.986-4.249 1.986-6.716h-4.364zM25.646 25.742c-0.812 1.218-1.938 2.189-3.443 2.906l1.876 3.94c2.161-1.029 3.915-2.502 5.197-4.425l-3.631-2.421zM22.217 28.642c-1.48 0.692-3.18 1.060-5.141 1.060v4.364c2.519 0 4.863-0.476 6.99-1.471l-1.849-3.953zM17.076 29.702c-3.906 0-6.744-1.142-8.782-3.227l-3.12 3.050c3.024 3.093 7.080 4.54 11.902 4.54v-4.364zM8.295 26.475c-2.012-2.058-3.175-5.157-3.175-9.646h-4.364c0 5.228 1.368 9.576 4.418 12.696l3.12-3.050zM5.12 16.829c0-3.214 0.615-5.84 1.749-7.96l-3.848-2.058c-1.542 2.883-2.265 6.25-2.265 10.018h4.364zM6.865 8.877c1.172-2.17 2.775-3.774 4.827-4.874l-2.061-3.846c-2.835 1.519-5.043 3.754-6.606 6.646l3.839 2.074zM11.692 4.003c2.078-1.113 4.55-1.705 7.479-1.705v-4.364c-3.529 0-6.73 0.717-9.539 2.222l2.061 3.846zM19.171 2.298c1.587 0 3.073 0.172 4.464 0.507l1.021-4.242c-1.751-0.422-3.581-0.628-5.485-0.628v4.364zM23.635 2.805c1.378 0.332 2.472 0.798 3.326 1.36l2.398-3.645c-1.357-0.893-2.939-1.532-4.703-1.957l-1.021 4.242zM26.214 1.355l-3.142 6.196 3.892 1.973 3.142-6.196-3.892-1.973zM26.276 6.756c-1.935-1.366-4.281-1.97-6.887-1.97v4.364c1.932 0 3.338 0.443 4.371 1.172l2.516-3.565zM19.389 4.785c-2.631 0-4.975 0.738-6.821 2.388l2.908 3.254c0.889-0.794 2.123-1.278 3.913-1.278v-4.364zM12.568 7.173c-1.88 1.68-2.836 4.013-3.076 6.714l4.347 0.385c0.168-1.895 0.782-3.082 1.637-3.846l-2.908-3.254zM13.094 15.729c1.262-1.094 3.012-1.736 5.466-1.736v-4.364c-3.248 0-6.094 0.87-8.323 2.802l2.858 3.298zM16.553 27.913c1.661 0 3.214-0.488 4.447-1.626l-2.96-3.206c-0.28 0.258-0.705 0.469-1.487 0.469v4.364zM20.97 26.314c1.317-1.17 1.91-2.744 1.91-4.467h-4.364c0 0.663-0.192 0.98-0.446 1.206l2.899 3.261zM22.88 21.847c0-1.712-0.606-3.264-1.91-4.423l-2.899 3.261c0.267 0.237 0.446 0.547 0.446 1.162h4.364zM21 17.451c-1.242-1.147-2.816-1.626-4.491-1.626v4.364c0.827 0 1.261 0.219 1.531 0.469l2.96-3.206zM16.509 15.825c-1.702 0-3.281 0.509-4.537 1.672l2.965 3.202c0.315-0.292 0.772-0.51 1.572-0.51v-4.364zM12.005 17.468c-1.304 1.159-1.91 2.711-1.91 4.423h4.364c0-0.615 0.179-0.925 0.446-1.162l-2.899-3.261zM10.095 21.891c0 1.674 0.583 3.191 1.804 4.365l3.024-3.145c-0.291-0.28-0.465-0.625-0.465-1.22h-4.364zM11.961 26.314c1.276 1.134 2.884 1.598 4.591 1.598v-4.364c-0.911 0-1.398-0.234-1.692-0.496l-2.899 3.261z"></path>
</symbol>
<symbol id="icon-advantage7" viewBox="0 0 32 32">
<path fill="#b798e0" style="fill: var(--color3, #b798e0)" d="M29.090 0h2.286v-2.286h-2.286v2.286zM29.090 5.669l2.101 0.901 0.185-0.431v-0.469h-2.286zM17.798 32v2.286h1.507l0.594-1.385-2.101-0.901zM7.924 32l-2.096-0.911-1.389 3.197h3.486v-2.286zM18.712 7.177l2.096 0.911 1.389-3.197h-3.486v2.286zM10.301 7.177v-2.286h-2.286v2.286h2.286zM10.301 12.114v2.286h2.286v-2.286h-2.286zM2.575 12.114h-2.286v2.286h2.286v-2.286zM2.575 0v-2.286h-2.286v2.286h2.286zM26.804 0v5.669h4.571v-5.669h-4.571zM26.989 4.768l-11.291 26.331 4.201 1.802 11.291-26.331-4.201-1.802zM17.798 29.714h-9.874v4.571h9.874v-4.571zM10.020 32.911l10.789-24.823-4.193-1.822-10.789 24.823 4.193 1.822zM18.712 4.891h-8.411v4.571h8.411v-4.571zM8.015 7.177v4.937h4.571v-4.937h-4.571zM10.301 9.829h-7.726v4.571h7.726v-4.571zM4.861 12.114v-12.114h-4.571v12.114h4.571zM2.575 2.286h26.514v-4.571h-26.514v4.571z"></path>
</symbol>
<symbol id="icon-chek" viewBox="0 0 32 32">
<path d="M26.988 0.001c-0.381 0.019-0.744 0.28-1.010 0.729l-15.115 24.799-4.836-7.934c-0.135-0.231-0.297-0.416-0.477-0.543s-0.372-0.194-0.568-0.198c-0.195-0.003-0.389 0.057-0.57 0.179s-0.345 0.3-0.483 0.527c-0.138 0.227-0.247 0.496-0.321 0.793s-0.111 0.615-0.109 0.935 0.043 0.637 0.12 0.931c0.078 0.294 0.19 0.56 0.331 0.782l5.874 9.637c0.275 0.452 0.649 0.705 1.038 0.705s0.763-0.254 1.038-0.705l16.153-26.503c0.212-0.338 0.357-0.774 0.416-1.25s0.028-0.97-0.087-1.417c-0.115-0.447-0.31-0.827-0.559-1.089s-0.541-0.395-0.836-0.381z"></path>
</symbol>
<symbol id="icon-facebook" viewBox="0 0 32 32">
<path fill="#fff" style="fill: var(--color2, #fff)" d="M22.667 4h-13.333c-2.945 0-5.333 2.388-5.333 5.333v13.333c0 2.945 2.388 5.333 5.333 5.333h7.495v-9.281h-3.124v-3.633h3.124v-2.673c0-3.099 1.895-4.788 4.66-4.788 0.932-0.003 1.863 0.045 2.789 0.14v3.24h-1.904c-1.507 0-1.8 0.712-1.8 1.763v2.313h3.6l-0.468 3.633h-3.153v9.287h2.115c2.945 0 5.333-2.388 5.333-5.333v-13.333c0-2.945-2.388-5.333-5.333-5.333z"></path>
</symbol>
<symbol id="icon-instagram" viewBox="0 0 32 32">
<path fill="#fff" style="fill: var(--color2, #fff)" d="M10.667 4c-3.681 0-6.667 2.985-6.667 6.667v10.667c0 3.681 2.985 6.667 6.667 6.667h10.667c3.681 0 6.667-2.985 6.667-6.667v-10.667c0-3.681-2.985-6.667-6.667-6.667h-10.667zM24 6.667c0.736 0 1.333 0.597 1.333 1.333s-0.597 1.333-1.333 1.333c-0.736 0-1.333-0.597-1.333-1.333s0.597-1.333 1.333-1.333zM16 9.333c3.681 0 6.667 2.985 6.667 6.667s-2.985 6.667-6.667 6.667c-3.681 0-6.667-2.985-6.667-6.667s2.985-6.667 6.667-6.667zM16 12c-1.061 0-2.078 0.421-2.828 1.172s-1.172 1.768-1.172 2.828 0.421 2.078 1.172 2.828c0.75 0.75 1.768 1.172 2.828 1.172s2.078-0.421 2.828-1.172c0.75-0.75 1.172-1.767 1.172-2.828s-0.421-2.078-1.172-2.828c-0.75-0.75-1.767-1.172-2.828-1.172z"></path>
</symbol>
<symbol id="icon-online-binoculars" viewBox="0 0 32 32">
<path d="M8 1c-2.555 0-4.541 0.865-4.926 2.070-0.619 0.184-1.074 0.752-1.074 1.43v3.088c0 1.975 0.371 3.906 1.102 5.74l2.682 6.727c0.207 0.518 0.674 0.867 1.217 0.932v3.514c0 0.826 0.674 1.5 1.5 1.5h0.5v2.092c-0.58 0.207-1 0.758-1 1.408 0 0.826 0.674 1.5 1.5 1.5h4c0.826 0 1.5-0.674 1.5-1.5 0-0.65-0.42-1.201-1-1.408v-2.092h4v2.092c-0.58 0.207-1 0.758-1 1.408 0 0.826 0.674 1.5 1.5 1.5h4c0.826 0 1.5-0.674 1.5-1.5 0-0.65-0.42-1.201-1-1.408v-2.092h0.5c0.826 0 1.5-0.674 1.5-1.5v-3.514c0.543-0.064 1.010-0.412 1.217-0.932l2.682-6.727c0.73-1.832 1.102-3.766 1.102-5.74v-3.088c0-0.678-0.455-1.246-1.072-1.43-0.387-1.205-2.373-2.070-4.928-2.070s-4.541 0.865-4.928 2.070c-0.617 0.184-1.072 0.752-1.072 1.43v7.5h-1.5v-1c0.277 0 0.5-0.225 0.5-0.5s-0.223-0.5-0.5-0.5h-1c-0.277 0-0.5 0.225-0.5 0.5s0.223 0.5 0.5 0.5v1h-1.5v-7.5c0-0.678-0.455-1.246-1.072-1.43-0.387-1.205-2.373-2.070-4.928-2.070zM8 2c1.822 0 3.152 0.494 3.709 1h-7.418c0.557-0.506 1.887-1 3.709-1zM24 2c1.822 0 3.152 0.494 3.709 1h-7.418c0.557-0.506 1.887-1 3.709-1zM3.5 4h9c0.275 0 0.5 0.225 0.5 0.5v0.5h-10v-0.5c0-0.275 0.225-0.5 0.5-0.5zM19.5 4h9c0.275 0 0.5 0.225 0.5 0.5v0.5h-10v-0.5c0-0.275 0.225-0.5 0.5-0.5zM3 6h10v14h-5.822c-0.205 0-0.389-0.123-0.465-0.314l-2.682-6.727c-0.684-1.715-1.031-3.523-1.031-5.371v-1.588zM19 6h10v1.588c0 1.848-0.348 3.656-1.031 5.371l-2.682 6.727c-0.076 0.191-0.26 0.314-0.465 0.314h-5.822v-14zM14 13h4v7h-4v-7zM8 21h16v3.5c0 0.275-0.225 0.5-0.5 0.5h-15c-0.275 0-0.5-0.225-0.5-0.5v-3.5zM9.5 22c-0.277 0-0.5 0.225-0.5 0.5v1c0 0.275 0.223 0.5 0.5 0.5s0.5-0.225 0.5-0.5v-1c0-0.275-0.223-0.5-0.5-0.5zM12 22c-0.277 0-0.5 0.225-0.5 0.5v1c0 0.275 0.223 0.5 0.5 0.5s0.5-0.225 0.5-0.5v-1c0-0.275-0.223-0.5-0.5-0.5zM14.5 22c-0.277 0-0.5 0.225-0.5 0.5v1c0 0.275 0.223 0.5 0.5 0.5s0.5-0.225 0.5-0.5v-1c0-0.275-0.223-0.5-0.5-0.5zM17.5 22c-0.277 0-0.5 0.225-0.5 0.5v1c0 0.275 0.223 0.5 0.5 0.5s0.5-0.225 0.5-0.5v-1c0-0.275-0.223-0.5-0.5-0.5zM20 22c-0.277 0-0.5 0.225-0.5 0.5v1c0 0.275 0.223 0.5 0.5 0.5s0.5-0.225 0.5-0.5v-1c0-0.275-0.223-0.5-0.5-0.5zM22.5 22c-0.277 0-0.5 0.225-0.5 0.5v1c0 0.275 0.223 0.5 0.5 0.5s0.5-0.225 0.5-0.5v-1c0-0.275-0.223-0.5-0.5-0.5zM10 26h3v2h-3v-2zM19 26h3v2h-3v-2zM9.5 29h4c0.275 0 0.5 0.225 0.5 0.5s-0.225 0.5-0.5 0.5h-4c-0.275 0-0.5-0.225-0.5-0.5s0.225-0.5 0.5-0.5zM18.5 29h4c0.275 0 0.5 0.225 0.5 0.5s-0.225 0.5-0.5 0.5h-4c-0.275 0-0.5-0.225-0.5-0.5s0.225-0.5 0.5-0.5z"></path>
</symbol>
<symbol id="icon-online-clock" viewBox="0 0 32 32">
<path d="M15.5 1c-7.996 0-14.5 6.504-14.5 14.5s6.504 14.5 14.5 14.5c7.996 0 14.5-6.504 14.5-14.5s-6.504-14.5-14.5-14.5zM15.5 2c7.443 0 13.5 6.057 13.5 13.5s-6.057 13.5-13.5 13.5c-7.443 0-13.5-6.057-13.5-13.5s6.057-13.5 13.5-13.5zM15.5 4c-6.342 0-11.5 5.158-11.5 11.5s5.158 11.5 11.5 11.5c6.342 0 11.5-5.158 11.5-11.5 0-3.553-1.604-6.85-4.4-9.047-0.217-0.17-0.529-0.133-0.701 0.084-0.17 0.217-0.133 0.531 0.084 0.703 2.553 2.006 4.018 5.018 4.018 8.26 0 5.789-4.711 10.5-10.5 10.5s-10.5-4.711-10.5-10.5c0-5.789 4.711-10.5 10.5-10.5 0.514 0 1.029 0.037 1.531 0.111 0.275 0.041 0.529-0.148 0.568-0.422s-0.148-0.527-0.422-0.568c-0.551-0.080-1.115-0.121-1.678-0.121zM19.266 4.672c-0.193 0.010-0.373 0.133-0.445 0.328-0.094 0.258 0.039 0.545 0.299 0.641 0.391 0.143 0.779 0.314 1.154 0.506 0.074 0.037 0.152 0.055 0.229 0.055 0.182 0 0.357-0.1 0.445-0.273 0.125-0.246 0.027-0.547-0.219-0.672-0.41-0.211-0.836-0.396-1.266-0.555-0.064-0.023-0.131-0.033-0.197-0.029zM15.5 7c-0.275 0-0.5 0.225-0.5 0.5v1c0 0.275 0.225 0.5 0.5 0.5s0.5-0.225 0.5-0.5v-1c0-0.275-0.225-0.5-0.5-0.5zM18.49 7.584c-0.195 0.002-0.379 0.119-0.457 0.313l-0.375 0.926c-0.104 0.256 0.020 0.549 0.277 0.652 0.061 0.023 0.125 0.035 0.188 0.035 0.197 0 0.385-0.117 0.463-0.313l0.375-0.928c0.104-0.256-0.021-0.547-0.277-0.65-0.064-0.025-0.129-0.037-0.193-0.035zM21.049 9.244c-0.129 0.004-0.254 0.055-0.352 0.154l-0.695 0.719c-0.191 0.199-0.186 0.516 0.014 0.707 0.096 0.094 0.221 0.141 0.346 0.141 0.133 0 0.262-0.053 0.359-0.152l0.695-0.719c0.193-0.199 0.188-0.516-0.010-0.709-0.1-0.096-0.229-0.143-0.357-0.141zM15.5 10c-0.275 0-0.5 0.225-0.5 0.5v4.139c-0.297 0.174-0.5 0.492-0.5 0.861 0 0.551 0.449 1 1 1 0.090 0 0.174-0.016 0.256-0.037l3.141 3.141c0.098 0.098 0.225 0.146 0.354 0.146s0.256-0.049 0.354-0.146c0.195-0.195 0.195-0.512 0-0.707l-3.141-3.141c0.021-0.082 0.037-0.166 0.037-0.256 0-0.369-0.203-0.688-0.5-0.861v-4.139c0-0.275-0.225-0.5-0.5-0.5zM22.799 11.746c-0.064 0.002-0.131 0.016-0.193 0.043l-0.914 0.406c-0.252 0.113-0.365 0.408-0.254 0.662 0.084 0.186 0.266 0.297 0.457 0.297 0.068 0 0.137-0.016 0.203-0.045l0.914-0.406c0.252-0.113 0.365-0.408 0.254-0.66-0.086-0.189-0.271-0.301-0.467-0.297zM7.5 15c-0.275 0-0.5 0.225-0.5 0.5s0.225 0.5 0.5 0.5h1c0.275 0 0.5-0.225 0.5-0.5s-0.225-0.5-0.5-0.5h-1zM22.5 15c-0.275 0-0.5 0.225-0.5 0.5s0.225 0.5 0.5 0.5h1c0.275 0 0.5-0.225 0.5-0.5s-0.225-0.5-0.5-0.5h-1zM21.982 17.623c-0.195 0.002-0.379 0.119-0.457 0.313-0.102 0.256 0.021 0.547 0.277 0.65l0.928 0.375c0.061 0.025 0.125 0.037 0.186 0.037 0.199 0 0.387-0.119 0.465-0.314 0.104-0.256-0.020-0.547-0.277-0.65l-0.926-0.375c-0.064-0.025-0.131-0.037-0.195-0.035zM20.527 19.861c-0.127 0.004-0.256 0.055-0.352 0.154-0.076 0.078-0.111 0.178-0.127 0.277-0.084 0.184-0.055 0.408 0.098 0.561l0.656 0.656c0.098 0.098 0.225 0.146 0.354 0.146s0.256-0.049 0.354-0.146c0.018-0.018 0.027-0.043 0.043-0.063 0.020-0.016 0.043-0.023 0.063-0.043 0.191-0.199 0.186-0.516-0.014-0.707l-0.719-0.695c-0.1-0.096-0.229-0.143-0.355-0.141zM15.5 22c-0.275 0-0.5 0.225-0.5 0.5v1c0 0.275 0.225 0.5 0.5 0.5s0.5-0.225 0.5-0.5v-1c0-0.275-0.225-0.5-0.5-0.5z"></path>
</symbol>
<symbol id="icon-online-cursor" viewBox="0 0 32 32">
<path d="M7.084 2c-0.277 0-0.5 0.223-0.5 0.5v1.035c0 0.277 0.223 0.5 0.5 0.5 0.275 0 0.5-0.223 0.5-0.5v-1.035c0-0.277-0.225-0.5-0.5-0.5zM3.652 3.215c-0.129 0-0.256 0.049-0.355 0.147-0.195 0.195-0.195 0.512 0 0.707l0.734 0.732c0.098 0.098 0.225 0.146 0.354 0.146s0.256-0.049 0.354-0.146c0.195-0.195 0.195-0.512 0-0.707l-0.734-0.732c-0.098-0.098-0.225-0.147-0.352-0.147zM10.516 3.215c-0.129 0-0.256 0.049-0.354 0.147l-0.734 0.732c-0.195 0.195-0.195 0.512 0 0.707 0.098 0.098 0.227 0.146 0.354 0.146 0.129 0 0.256-0.049 0.354-0.146l0.732-0.732c0.197-0.195 0.197-0.512 0-0.707-0.098-0.098-0.225-0.147-0.352-0.147zM6.988 5.916c-0.289-0.025-0.574 0.078-0.789 0.293-0.287 0.287-0.373 0.697-0.223 1.074l8.035 20.25c0.143 0.359 0.469 0.6 0.854 0.629 0.379 0.027 0.742-0.156 0.938-0.488l3.367-5.695 6.67 6.672c0.283 0.283 0.66 0.441 1.061 0.441 0.402 0 0.779-0.156 1.061-0.441l0.709-0.705c0.584-0.586 0.584-1.539 0-2.123l-6.67-6.668 5.662-3.342c0.332-0.197 0.52-0.555 0.49-0.939s-0.271-0.709-0.629-0.852l-20.248-8.035c-0.094-0.037-0.191-0.061-0.287-0.070zM2.438 6.646c-0.277 0-0.5 0.223-0.5 0.5s0.223 0.5 0.5 0.5h1.035c0.277 0 0.5-0.223 0.5-0.5s-0.223-0.5-0.5-0.5h-1.035zM6.906 6.914l20.248 8.037-5.662 3.34c-0.27 0.158-0.445 0.428-0.484 0.736s0.064 0.613 0.285 0.832l6.668 6.67c0.195 0.195 0.195 0.514 0 0.707l-0.707 0.709c-0.189 0.189-0.518 0.189-0.707 0l-6.672-6.672c-0.189-0.191-0.439-0.295-0.703-0.295-0.043 0-0.086 0.004-0.127 0.008-0.311 0.039-0.578 0.217-0.738 0.484l-3.365 5.693-8.035-20.25zM4.385 9.344c-0.129 0.002-0.256 0.051-0.354 0.148l-0.734 0.732c-0.195 0.195-0.195 0.51 0 0.705 0.098 0.098 0.227 0.148 0.355 0.148 0.127 0 0.256-0.051 0.352-0.148l0.734-0.732c0.195-0.195 0.195-0.51 0-0.705-0.098-0.1-0.225-0.148-0.354-0.148zM11.016 9.711c-0.195 0.004-0.379 0.123-0.453 0.314-0.104 0.258 0.023 0.549 0.281 0.65l1.572 0.625c0.061 0.023 0.123 0.035 0.186 0.035 0.197 0 0.387-0.121 0.463-0.316 0.102-0.258-0.023-0.547-0.279-0.65l-1.574-0.623c-0.064-0.025-0.131-0.037-0.195-0.035zM14.619 11.141c-0.195 0.006-0.377 0.125-0.453 0.316-0.102 0.258 0.023 0.547 0.281 0.65l7.348 2.916c0.061 0.023 0.123 0.033 0.184 0.033 0.199 0 0.389-0.119 0.467-0.314 0.102-0.258-0.025-0.549-0.281-0.65l-7.35-2.914c-0.064-0.027-0.131-0.037-0.195-0.037z"></path>
</symbol>
<symbol id="icon-online-delete" viewBox="0 0 32 32">
<path d="M15.5 1c-7.994 0-14.5 6.504-14.5 14.5s6.506 14.5 14.5 14.5c7.994 0 14.5-6.504 14.5-14.5s-6.506-14.5-14.5-14.5zM15.5 2c7.443 0 13.5 6.057 13.5 13.5s-6.057 13.5-13.5 13.5c-7.443 0-13.5-6.057-13.5-13.5s6.057-13.5 13.5-13.5zM15.281 4.004c-2.945 0.059-5.801 1.252-7.914 3.363-4.482 4.484-4.482 11.779 0 16.264 0.098 0.098 0.227 0.146 0.354 0.146 0.129 0 0.258-0.049 0.355-0.146 0.195-0.195 0.195-0.512 0-0.707-4.096-4.094-4.094-10.754 0-14.848 2.373-2.375 5.773-3.475 9.094-2.943 0.271 0.045 0.529-0.143 0.572-0.414 0.045-0.273-0.143-0.531-0.414-0.574-0.682-0.109-1.365-0.156-2.047-0.141zM19.328 4.693c-0.193 0.008-0.373 0.131-0.445 0.324-0.098 0.26 0.033 0.547 0.293 0.644 0.357 0.133 0.709 0.287 1.051 0.457 0.072 0.037 0.148 0.055 0.225 0.055 0.182 0 0.357-0.1 0.447-0.275 0.123-0.246 0.023-0.547-0.223-0.672-0.371-0.188-0.76-0.355-1.15-0.502-0.064-0.023-0.131-0.033-0.197-0.031zM22.217 6.338c-0.127 0.016-0.248 0.078-0.334 0.188-0.17 0.217-0.133 0.531 0.086 0.701 0.334 0.262 0.654 0.547 0.955 0.85 4.096 4.094 4.096 10.754 0 14.848-0.195 0.197-0.195 0.512 0 0.709 0.098 0.096 0.227 0.146 0.355 0.146 0.127 0 0.256-0.051 0.354-0.146 4.482-4.484 4.482-11.781 0-16.266-0.33-0.328-0.682-0.641-1.047-0.928-0.109-0.084-0.244-0.117-0.369-0.102zM11.258 10.758c-0.127 0-0.256 0.049-0.354 0.146-0.195 0.195-0.195 0.512 0 0.707l3.889 3.889-3.889 3.889c-0.195 0.195-0.195 0.512 0 0.707 0.098 0.098 0.225 0.146 0.354 0.146s0.256-0.049 0.354-0.146l3.889-3.889 3.889 3.889c0.098 0.098 0.225 0.146 0.354 0.146s0.256-0.049 0.354-0.146c0.195-0.195 0.195-0.512 0-0.707l-3.889-3.889 3.889-3.889c0.195-0.195 0.195-0.512 0-0.707s-0.512-0.195-0.707 0l-3.889 3.889-3.889-3.889c-0.098-0.098-0.227-0.146-0.354-0.146zM10.688 23.697c-0.195-0.023-0.393 0.066-0.494 0.246l-0.5 0.867c-0.139 0.238-0.057 0.543 0.182 0.682 0.078 0.045 0.164 0.068 0.25 0.068 0.172 0 0.34-0.090 0.432-0.25l0.5-0.867c0.139-0.238 0.059-0.545-0.182-0.684-0.061-0.033-0.125-0.055-0.188-0.063zM20.313 23.697c-0.064 0.008-0.129 0.029-0.188 0.063-0.24 0.139-0.32 0.445-0.182 0.686l0.5 0.865c0.092 0.16 0.26 0.25 0.432 0.25 0.086 0 0.172-0.021 0.25-0.068 0.24-0.137 0.32-0.443 0.182-0.682l-0.5-0.865c-0.104-0.18-0.301-0.271-0.494-0.248zM12.908 24.672c-0.193 0.027-0.361 0.166-0.416 0.367l-0.258 0.967c-0.072 0.266 0.088 0.539 0.354 0.611 0.043 0.012 0.086 0.018 0.131 0.018 0.219 0 0.422-0.148 0.482-0.371l0.26-0.967c0.070-0.266-0.088-0.541-0.354-0.611-0.068-0.020-0.135-0.023-0.199-0.014zM18.094 24.672c-0.064-0.010-0.133-0.006-0.201 0.014-0.266 0.070-0.424 0.346-0.354 0.611l0.26 0.967c0.061 0.223 0.262 0.371 0.482 0.371 0.045 0 0.088-0.006 0.131-0.018 0.266-0.072 0.426-0.346 0.354-0.611l-0.258-0.967c-0.055-0.201-0.223-0.34-0.414-0.367zM15.5 25c-0.277 0-0.5 0.225-0.5 0.5v1c0 0.275 0.223 0.5 0.5 0.5s0.5-0.225 0.5-0.5v-1c0-0.275-0.223-0.5-0.5-0.5z"></path>
</symbol>
<symbol id="icon-online-file" viewBox="0 0 32 32">
<path d="M10.828 2c-0.668 0-1.295 0.26-1.768 0.732l-4.328 4.328c-0.473 0.473-0.732 1.1-0.732 1.768v19.672c0 0.826 0.674 1.5 1.5 1.5h20c0.826 0 1.5-0.674 1.5-1.5v-25c0-0.826-0.674-1.5-1.5-1.5h-14.672zM11 3h14.5c0.275 0 0.5 0.225 0.5 0.5v25c0 0.275-0.225 0.5-0.5 0.5h-20c-0.275 0-0.5-0.225-0.5-0.5v-19.5h4.5c0.826 0 1.5-0.674 1.5-1.5v-4.5zM10 3.25v4.25c0 0.275-0.225 0.5-0.5 0.5h-4.25c0.053-0.082 0.117-0.16 0.189-0.232l4.328-4.328c0.072-0.070 0.15-0.133 0.232-0.189zM10 12c-1.104 0-2 0.896-2 2s0.896 2 2 2c1.104 0 2-0.896 2-2s-0.896-2-2-2zM10 12.875c0.621 0 1.125 0.504 1.125 1.125s-0.504 1.125-1.125 1.125c-0.621 0-1.125-0.504-1.125-1.125s0.504-1.125 1.125-1.125zM18.5 15.207c-0.256 0-0.512 0.098-0.707 0.293l-3.293 3.293-1.293-1.293c-0.391-0.391-1.025-0.391-1.414 0l-4.5 4.5h-0.771c-0.313 0-0.521 0.199-0.521 0.5s0.262 0.5 0.521 0.5h17.969c0.26 0 0.521-0.199 0.521-0.5s-0.262-0.5-0.521-0.5h-11.783l5.793-5.793 4.146 4.146c0.195 0.195 0.512 0.195 0.707 0s0.195-0.512 0-0.707l-4.146-4.146c-0.195-0.195-0.451-0.293-0.707-0.293zM12.5 18.207l1.293 1.293-2.5 2.5h-2.586l3.793-3.793zM6.5 26c-0.275 0-0.5 0.225-0.5 0.5v1c0 0.275 0.225 0.5 0.5 0.5s0.5-0.225 0.5-0.5v-1c0-0.275-0.225-0.5-0.5-0.5zM9 26c-0.275 0-0.5 0.225-0.5 0.5v1c0 0.275 0.225 0.5 0.5 0.5s0.5-0.225 0.5-0.5v-1c0-0.275-0.225-0.5-0.5-0.5zM11.5 26c-0.275 0-0.5 0.225-0.5 0.5v1c0 0.275 0.225 0.5 0.5 0.5s0.5-0.225 0.5-0.5v-1c0-0.275-0.225-0.5-0.5-0.5zM14 26c-0.275 0-0.5 0.225-0.5 0.5v1c0 0.275 0.225 0.5 0.5 0.5s0.5-0.225 0.5-0.5v-1c0-0.275-0.225-0.5-0.5-0.5zM16.5 26c-0.275 0-0.5 0.225-0.5 0.5v1c0 0.275 0.225 0.5 0.5 0.5s0.5-0.225 0.5-0.5v-1c0-0.275-0.225-0.5-0.5-0.5zM19 26c-0.275 0-0.5 0.225-0.5 0.5v1c0 0.275 0.225 0.5 0.5 0.5s0.5-0.225 0.5-0.5v-1c0-0.275-0.225-0.5-0.5-0.5zM21.5 26c-0.275 0-0.5 0.225-0.5 0.5v1c0 0.275 0.225 0.5 0.5 0.5s0.5-0.225 0.5-0.5v-1c0-0.275-0.225-0.5-0.5-0.5zM24 26c-0.275 0-0.5 0.225-0.5 0.5v1c0 0.275 0.225 0.5 0.5 0.5s0.5-0.225 0.5-0.5v-1c0-0.275-0.225-0.5-0.5-0.5z"></path>
</symbol>
<symbol id="icon-online-home" viewBox="0 0 32 32">
<path d="M15.498 3.008c-0.031 0-0.061 0.002-0.092 0.008-0.031 0.008-0.063 0.016-0.094 0.027-0.029 0.014-0.057 0.029-0.086 0.047-0.014 0.010-0.033 0.014-0.047 0.025l-6.18 5.115v-1.701c0-0.277-0.223-0.5-0.5-0.5s-0.5 0.223-0.5 0.5v2.5c0 0.008 0.004 0.016 0.006 0.025l-1.006 0.83v-5.357c0-0.275-0.223-0.5-0.5-0.5s-0.5 0.225-0.5 0.5v6.002c0 0.055 0.016 0.107 0.031 0.158l-5.352 4.428c-0.213 0.176-0.24 0.49-0.066 0.703 0.1 0.119 0.244 0.182 0.387 0.182 0.113 0 0.227-0.037 0.32-0.115l1.68-1.391v12.506h-1.5c-0.277 0-0.5 0.225-0.5 0.5s0.223 0.5 0.5 0.5h28c0.277 0 0.5-0.225 0.5-0.5s-0.223-0.5-0.5-0.5h-1.5v-12.506l1.68 1.391c0.094 0.078 0.207 0.115 0.32 0.115 0.143 0 0.285-0.063 0.385-0.18 0.176-0.215 0.146-0.529-0.066-0.705l-14.5-12c-0.014-0.012-0.031-0.016-0.047-0.025-0.029-0.020-0.057-0.035-0.090-0.047-0.029-0.012-0.057-0.020-0.088-0.027-0.031-0.006-0.063-0.008-0.096-0.008zM15.5 4.148l11.5 9.518v8.334h-8v-4c0-0.551-0.449-1-1-1h-5c-0.551 0-1 0.449-1 1v4h-8v-8.334l11.5-9.518zM15.5 9c-1.379 0-2.5 1.121-2.5 2.5s1.121 2.5 2.5 2.5c1.379 0 2.5-1.121 2.5-2.5s-1.121-2.5-2.5-2.5zM15.5 9.896c0.885 0 1.604 0.719 1.604 1.604s-0.719 1.604-1.604 1.604c-0.885 0-1.604-0.719-1.604-1.604s0.719-1.604 1.604-1.604zM13 18h5v8.975h-5v-8.975zM16.5 21.5c-0.277 0-0.5 0.225-0.5 0.5v1c0 0.275 0.223 0.5 0.5 0.5s0.5-0.225 0.5-0.5v-1c0-0.275-0.223-0.5-0.5-0.5zM4 23h8v4h-8v-4zM19 23h8v4h-8v-4zM5.5 24c-0.277 0-0.5 0.225-0.5 0.5v1c0 0.275 0.223 0.5 0.5 0.5s0.5-0.225 0.5-0.5v-1c0-0.275-0.223-0.5-0.5-0.5zM8 24c-0.277 0-0.5 0.225-0.5 0.5v1c0 0.275 0.223 0.5 0.5 0.5s0.5-0.225 0.5-0.5v-1c0-0.275-0.223-0.5-0.5-0.5zM10.5 24c-0.277 0-0.5 0.225-0.5 0.5v1c0 0.275 0.223 0.5 0.5 0.5s0.5-0.225 0.5-0.5v-1c0-0.275-0.223-0.5-0.5-0.5zM20.5 24c-0.277 0-0.5 0.225-0.5 0.5v1c0 0.275 0.223 0.5 0.5 0.5s0.5-0.225 0.5-0.5v-1c0-0.275-0.223-0.5-0.5-0.5zM23 24c-0.277 0-0.5 0.225-0.5 0.5v1c0 0.275 0.223 0.5 0.5 0.5s0.5-0.225 0.5-0.5v-1c0-0.275-0.223-0.5-0.5-0.5zM25.5 24c-0.277 0-0.5 0.225-0.5 0.5v1c0 0.275 0.223 0.5 0.5 0.5s0.5-0.225 0.5-0.5v-1c0-0.275-0.223-0.5-0.5-0.5z"></path>
</symbol>
<symbol id="icon-online-padlock" viewBox="0 0 32 32">
<path d="M15.5 0c-5.238 0-9.5 4.262-9.5 9.5v3.5h-1.5c-0.826 0-1.5 0.674-1.5 1.5v15c0 0.826 0.674 1.5 1.5 1.5h23c0.826 0 1.5-0.674 1.5-1.5v-15c0-0.826-0.674-1.5-1.5-1.5h-17.5v-3.5c0-3.033 2.467-5.5 5.5-5.5h1c3.033 0 5.5 2.467 5.5 5.5 0 0.826 0.674 1.5 1.5 1.5h1c0.826 0 1.5-0.674 1.5-1.5 0-5.238-4.262-9.5-9.5-9.5h-1zM15.5 1h1c0.17 0 0.334 0.016 0.5 0.025v2c-0.166-0.014-0.33-0.025-0.5-0.025h-1c-0.17 0-0.334 0.012-0.5 0.025v-2c0.166-0.010 0.33-0.025 0.5-0.025zM14 1.141v2.041c-2.861 0.68-5 3.252-5 6.318v3.5h-2v-3.5c0-4.174 3.027-7.648 7-8.359zM18 1.141c3.973 0.711 7 4.186 7 8.359 0 0.275-0.225 0.5-0.5 0.5h-1c-0.275 0-0.5-0.225-0.5-0.5 0-3.066-2.139-5.639-5-6.318v-2.041zM4.5 14h23c0.275 0 0.5 0.225 0.5 0.5v15c0 0.275-0.225 0.5-0.5 0.5h-23c-0.275 0-0.5-0.225-0.5-0.5v-15c0-0.275 0.225-0.5 0.5-0.5zM16 16c-2.758 0-5 2.242-5 5s2.242 5 5 5c2.758 0 5-2.242 5-5s-2.242-5-5-5zM16 17c2.205 0 4 1.795 4 4s-1.795 4-4 4c-2.205 0-4-1.795-4-4s1.795-4 4-4zM16 17.5c-0.277 0-0.5 0.225-0.5 0.5v0.916c0 0.277 0.223 0.5 0.5 0.5s0.5-0.225 0.5-0.5v-0.916c0-0.275-0.223-0.5-0.5-0.5zM13.908 18.367c-0.127 0-0.256 0.047-0.354 0.146-0.195 0.193-0.195 0.51 0 0.705l0.648 0.648c0.096 0.098 0.225 0.148 0.352 0.148 0.129 0 0.258-0.051 0.354-0.148 0.197-0.193 0.197-0.51 0-0.705l-0.646-0.648c-0.098-0.1-0.227-0.146-0.354-0.146zM18.15 18.367c-0.127 0-0.254 0.047-0.354 0.146l-0.648 0.648c-0.195 0.193-0.195 0.51 0 0.705 0.098 0.1 0.227 0.148 0.354 0.148 0.129 0 0.258-0.051 0.355-0.148l0.648-0.648c0.195-0.193 0.195-0.51 0-0.705-0.1-0.1-0.227-0.146-0.355-0.146zM13 20.5c-0.277 0-0.5 0.225-0.5 0.5s0.223 0.5 0.5 0.5h0.916c0.277 0 0.5-0.225 0.5-0.5s-0.223-0.5-0.5-0.5h-0.916zM18.084 20.5c-0.277 0-0.5 0.225-0.5 0.5s0.223 0.5 0.5 0.5h0.916c0.277 0 0.5-0.225 0.5-0.5s-0.223-0.5-0.5-0.5h-0.916zM17.445 21.902c-0.129 0-0.256 0.049-0.354 0.146-0.197 0.195-0.197 0.512 0 0.707l0.646 0.648c0.098 0.098 0.225 0.146 0.354 0.146s0.256-0.049 0.354-0.146c0.195-0.195 0.195-0.512 0-0.707l-0.648-0.648c-0.098-0.098-0.225-0.146-0.352-0.146zM14.557 21.961c-0.129 0-0.256 0.049-0.354 0.146l-0.648 0.648c-0.195 0.195-0.195 0.512 0 0.707 0.098 0.098 0.225 0.146 0.354 0.146s0.256-0.049 0.354-0.146l0.646-0.648c0.197-0.195 0.197-0.512 0-0.707-0.096-0.098-0.223-0.146-0.352-0.146zM16 22.5c-0.277 0-0.5 0.225-0.5 0.5v0.916c0 0.277 0.223 0.5 0.5 0.5s0.5-0.225 0.5-0.5v-0.916c0-0.275-0.223-0.5-0.5-0.5zM5.5 28c-0.277 0-0.5 0.225-0.5 0.5s0.223 0.5 0.5 0.5h17c0.277 0 0.5-0.225 0.5-0.5s-0.223-0.5-0.5-0.5h-17zM24.5 28c-0.277 0-0.5 0.225-0.5 0.5s0.223 0.5 0.5 0.5h2c0.277 0 0.5-0.225 0.5-0.5s-0.223-0.5-0.5-0.5h-2z"></path>
</symbol>
<symbol id="icon-online-user" viewBox="0 0 32 32">
<path d="M15.412 0c-4.012 0-7.424 2.734-8.297 6.648l-1.225 5.486c-0.254 1.131-0.703 2.193-1.34 3.16l-0.832 1.26c-0.246 0.375-0.313 0.836-0.182 1.264 0.133 0.43 0.447 0.777 0.865 0.949 0.646 0.27 1.377 0.518 2.172 0.75l-2.445 1.172c-1.9 0.908-3.129 2.855-3.129 4.961v3.85c0 0.826 0.674 1.5 1.5 1.5h27c0.826 0 1.5-0.674 1.5-1.5v-3.85c0-2.105-1.227-4.053-3.127-4.961l-2.469-1.182c0.809-0.232 1.549-0.479 2.195-0.742 0.414-0.172 0.729-0.514 0.863-0.943 0.133-0.43 0.068-0.893-0.178-1.268l-0.93-1.424c-0.617-0.943-1.057-1.979-1.309-3.076l-1.135-4.953c-0.844-3.678-4.037-6.365-7.797-6.58-0.512-0.342-1.098-0.521-1.703-0.521zM15.412 1c0.441 0 0.869 0.143 1.236 0.414 0.080 0.061 0.178 0.096 0.277 0.098 3.373 0.135 6.258 2.525 7.012 5.812l1.135 4.953c0.279 1.215 0.766 2.357 1.445 3.4l0.93 1.422c0.084 0.127 0.105 0.281 0.061 0.426-0.025 0.084-0.098 0.236-0.289 0.313-0.893 0.367-1.973 0.703-3.203 1.006l-2.773-1.326c0.533-0.828 0.967-1.736 1.266-2.65 0.613-0.23 1.174-0.98 1.441-1.979 0.158-0.59 0.189-1.184 0.090-1.672-0.125-0.609-0.441-1.012-0.891-1.131-0.063-0.018-0.137-0.031-0.221-0.033-0.055-0.4-0.143-0.795-0.264-1.178-0.086-0.264-0.365-0.41-0.629-0.326s-0.408 0.365-0.324 0.629c0.156 0.496 0.25 1.014 0.273 1.539 0.010 0.178 0.113 0.34 0.271 0.422 0.16 0.080 0.35 0.072 0.5-0.027 0.090-0.057 0.135-0.059 0.133-0.059 0.027 0.008 0.117 0.109 0.17 0.363 0.068 0.336 0.041 0.777-0.074 1.215-0.248 0.92-0.721 1.309-0.867 1.309-0.221 0-0.416 0.146-0.479 0.357-0.844 2.834-3.049 5.703-5.639 5.703s-4.795-2.869-5.639-5.703c-0.063-0.211-0.256-0.357-0.479-0.357-0.146 0-0.619-0.389-0.865-1.309-0.117-0.438-0.145-0.879-0.076-1.215 0.053-0.254 0.145-0.357 0.168-0.363 0 0 0.043 0 0.135 0.059 0.15 0.098 0.34 0.107 0.5 0.027 0.158-0.082 0.264-0.242 0.271-0.422 0.023-0.521 0.115-1.037 0.273-1.531 0.082-0.264-0.064-0.547-0.328-0.629-0.262-0.086-0.543 0.063-0.625 0.326-0.121 0.383-0.211 0.773-0.264 1.17-0.084 0.004-0.156 0.016-0.219 0.033-0.451 0.119-0.768 0.521-0.893 1.131-0.1 0.488-0.066 1.082 0.092 1.672 0.266 0.998 0.828 1.748 1.439 1.979 0.301 0.914 0.732 1.822 1.268 2.65l-2.805 1.342c-1.203-0.301-2.272-0.641-3.17-1.016-0.141-0.057-0.248-0.174-0.293-0.318-0.025-0.084-0.051-0.25 0.063-0.422l0.83-1.26c0.703-1.070 1.203-2.244 1.482-3.492l1.225-5.486c0.77-3.453 3.781-5.865 7.32-5.865zM13.086 6.063c-0.295 0.027-0.574 0.186-0.744 0.445l-0.803 1.217c-0.152 0.231-0.088 0.541 0.143 0.693 0.084 0.055 0.18 0.082 0.273 0.082 0.164 0 0.322-0.078 0.42-0.225l0.801-1.217 0.781 0.381c1.424 0.695 3.014 1.061 4.6 1.061h1.277c0.275 0 0.5-0.223 0.5-0.5s-0.225-0.5-0.5-0.5h-1.277c-1.434 0-2.873-0.332-4.16-0.961l-0.783-0.381c-0.17-0.082-0.352-0.111-0.527-0.096zM20.648 18.344l6.793 3.248c1.555 0.744 2.559 2.336 2.559 4.059v3.85c0 0.275-0.225 0.5-0.5 0.5h-27c-0.275 0-0.5-0.225-0.5-0.5v-3.85c0-1.721 1.004-3.316 2.559-4.059l6.793-3.248c1.229 1.551 2.85 2.656 4.648 2.656s3.42-1.105 4.648-2.656zM11.070 21.006c-0.193-0.029-0.393 0.059-0.5 0.236-0.141 0.238-0.064 0.545 0.172 0.688l5 3c0.080 0.047 0.168 0.070 0.258 0.070s0.178-0.023 0.258-0.070l5-3c0.236-0.143 0.313-0.451 0.172-0.688-0.143-0.236-0.449-0.313-0.688-0.172l-4.742 2.846-4.742-2.846c-0.059-0.035-0.123-0.057-0.188-0.064zM16 26c-0.275 0-0.5 0.223-0.5 0.5v2c0 0.277 0.225 0.5 0.5 0.5s0.5-0.223 0.5-0.5v-2c0-0.277-0.225-0.5-0.5-0.5zM3.5 27c-0.275 0-0.5 0.223-0.5 0.5v1c0 0.277 0.225 0.5 0.5 0.5s0.5-0.223 0.5-0.5v-1c0-0.277-0.225-0.5-0.5-0.5zM6 27c-0.275 0-0.5 0.223-0.5 0.5v1c0 0.277 0.225 0.5 0.5 0.5s0.5-0.223 0.5-0.5v-1c0-0.277-0.225-0.5-0.5-0.5zM8.5 27c-0.275 0-0.5 0.223-0.5 0.5v1c0 0.277 0.225 0.5 0.5 0.5s0.5-0.223 0.5-0.5v-1c0-0.277-0.225-0.5-0.5-0.5zM11 27c-0.275 0-0.5 0.223-0.5 0.5v1c0 0.277 0.225 0.5 0.5 0.5s0.5-0.223 0.5-0.5v-1c0-0.277-0.225-0.5-0.5-0.5zM13.5 27c-0.275 0-0.5 0.223-0.5 0.5v1c0 0.277 0.225 0.5 0.5 0.5s0.5-0.223 0.5-0.5v-1c0-0.277-0.225-0.5-0.5-0.5zM18.5 27c-0.275 0-0.5 0.223-0.5 0.5v1c0 0.277 0.225 0.5 0.5 0.5s0.5-0.223 0.5-0.5v-1c0-0.277-0.225-0.5-0.5-0.5zM21 27c-0.275 0-0.5 0.223-0.5 0.5v1c0 0.277 0.225 0.5 0.5 0.5s0.5-0.223 0.5-0.5v-1c0-0.277-0.225-0.5-0.5-0.5zM23.5 27c-0.275 0-0.5 0.223-0.5 0.5v1c0 0.277 0.225 0.5 0.5 0.5s0.5-0.223 0.5-0.5v-1c0-0.277-0.225-0.5-0.5-0.5zM26 27c-0.275 0-0.5 0.223-0.5 0.5v1c0 0.277 0.225 0.5 0.5 0.5s0.5-0.223 0.5-0.5v-1c0-0.277-0.225-0.5-0.5-0.5zM28.5 27c-0.275 0-0.5 0.223-0.5 0.5v1c0 0.277 0.225 0.5 0.5 0.5s0.5-0.223 0.5-0.5v-1c0-0.277-0.225-0.5-0.5-0.5z"></path>
</symbol>
<symbol id="icon-question-fb" viewBox="0 0 32 32">
<path d="M24.889 0h-17.778c-3.927 0-7.111 3.184-7.111 7.111v17.778c0 3.927 3.184 7.111 7.111 7.111h9.993v-12.375h-4.165v-4.845h4.165v-3.564c0-4.132 2.526-6.384 6.213-6.384 1.243-0.004 2.484 0.060 3.719 0.187v4.32h-2.539c-2.009 0-2.4 0.949-2.4 2.35v3.084h4.8l-0.624 4.844h-4.204v12.382h2.82c3.927 0 7.111-3.184 7.111-7.111v-17.778c0-3.927-3.184-7.111-7.111-7.111z"></path>
</symbol>
<symbol id="icon-question-inst" viewBox="0 0 32 32">
<path d="M8.889 0c-4.908 0-8.889 3.98-8.889 8.889v14.222c0 4.909 3.98 8.889 8.889 8.889h14.222c4.909 0 8.889-3.98 8.889-8.889v-14.222c0-4.908-3.98-8.889-8.889-8.889h-14.222zM26.667 3.556c0.981 0 1.778 0.796 1.778 1.778s-0.796 1.778-1.778 1.778c-0.981 0-1.778-0.796-1.778-1.778s0.796-1.778 1.778-1.778zM16 7.111c4.908 0 8.889 3.98 8.889 8.889s-3.981 8.889-8.889 8.889c-4.908 0-8.889-3.981-8.889-8.889s3.98-8.889 8.889-8.889zM16 10.667c-1.415 0-2.771 0.562-3.771 1.562s-1.562 2.357-1.562 3.771c0 1.415 0.562 2.771 1.562 3.771s2.357 1.562 3.771 1.562 2.771-0.562 3.771-1.562c1-1 1.562-2.357 1.562-3.771s-0.562-2.771-1.562-3.771c-1-1-2.357-1.562-3.771-1.562z"></path>
</symbol>
<symbol id="icon-question-letter" viewBox="0 0 32 32">
<path d="M30.963 4.434h-29.926c-0.573 0-1.037 0.464-1.037 1.037v21.059c0 0.573 0.464 1.037 1.037 1.037h29.926c0.573 0 1.037-0.464 1.037-1.037v-21.059c0-0.573-0.464-1.037-1.037-1.037zM28.317 22.229c0.439 0.381 0.486 1.046 0.105 1.485s-1.046 0.486-1.485 0.105c-0.272-0.236-7.138-6.195-7.402-6.425l-2.844 2.468c-0.198 0.172-0.444 0.258-0.69 0.258s-0.492-0.086-0.69-0.258l-2.844-2.468c-0.265 0.23-7.13 6.189-7.402 6.425-0.439 0.381-1.104 0.334-1.485-0.105s-0.334-1.104 0.105-1.485l7.176-6.228-7.176-6.228c-0.439-0.381-0.486-1.046-0.105-1.485s1.046-0.486 1.485-0.105c0.356 0.309 10.29 8.931 10.937 9.492 0.56-0.486 10.551-9.157 10.937-9.492 0.439-0.381 1.104-0.334 1.485 0.105s0.334 1.104-0.105 1.485l-7.176 6.228 7.176 6.228z"></path>
</symbol>
<symbol id="icon-question-phone" viewBox="0 0 32 32">
<path d="M31.657 24.265c-1.191-2.252-5.328-4.694-5.51-4.8-0.532-0.303-1.086-0.463-1.605-0.463-0.772 0-1.404 0.353-1.786 0.997-0.605 0.724-1.356 1.57-1.538 1.701-1.409 0.956-2.513 0.848-3.734-0.373l-6.814-6.815c-1.213-1.213-1.325-2.33-0.375-3.732 0.133-0.183 0.979-0.934 1.703-1.54 0.462-0.275 0.778-0.683 0.917-1.184 0.184-0.666 0.049-1.45-0.387-2.213-0.103-0.176-2.546-4.313-4.796-5.503-0.42-0.222-0.893-0.34-1.368-0.34-0.782 0-1.517 0.305-2.070 0.857l-1.506 1.505c-2.381 2.381-3.243 5.079-2.563 8.020 0.567 2.451 2.22 5.060 4.913 7.752l8.723 8.723c3.409 3.409 6.658 5.137 9.659 5.137 0 0 0 0 0.001 0 2.207 0 4.264-0.938 6.113-2.787l1.505-1.505c0.915-0.914 1.122-2.296 0.518-3.438z"></path>
</symbol>
<symbol id="icon-question-vector" viewBox="0 0 32 32">
<path d="M28.854 7.987c-0.462 0.010-0.9 0.155-1.222 0.404l-18.299 13.724-5.854-4.391c-0.164-0.128-0.36-0.23-0.577-0.301s-0.451-0.108-0.687-0.109c-0.237-0.002-0.471 0.032-0.69 0.099s-0.418 0.166-0.585 0.292c-0.167 0.125-0.299 0.275-0.389 0.439s-0.134 0.34-0.132 0.518c0.002 0.177 0.052 0.353 0.146 0.515s0.23 0.31 0.401 0.433l7.111 5.333c0.333 0.25 0.786 0.39 1.257 0.39s0.924-0.141 1.257-0.39l19.556-14.667c0.257-0.187 0.432-0.428 0.503-0.692s0.034-0.537-0.105-0.784-0.376-0.457-0.677-0.603c-0.301-0.145-0.654-0.218-1.013-0.211z"></path>
</symbol>
<symbol id="icon-question-wu" viewBox="0 0 32 32">
<path d="M26.784 5.223c-3.173-3.174-7.5-4.776-12.044-4.41-6.109 0.491-11.464 4.739-13.256 10.6-1.28 4.187-0.742 8.559 1.342 12.171l-1.975 6.557c-0.189 0.629 0.386 1.222 1.021 1.053l6.863-1.839c2.223 1.213 4.725 1.851 7.273 1.853h0.006c6.392 0 12.299-3.91 14.342-9.967 1.99-5.906 0.518-11.921-3.573-16.017zM23.464 21.416c-0.317 0.888-1.87 1.745-2.568 1.807-0.698 0.064-1.352 0.315-4.564-0.951-3.866-1.524-6.307-5.487-6.496-5.74-0.19-0.254-1.553-2.062-1.553-3.933s0.983-2.792 1.332-3.171c0.349-0.381 0.76-0.475 1.015-0.475 0.253 0 0.507 0 0.728 0.009 0.271 0.011 0.571 0.024 0.856 0.657 0.338 0.753 1.077 2.633 1.172 2.824s0.159 0.413 0.032 0.666c-0.127 0.253-0.191 0.411-0.379 0.634-0.191 0.223-0.399 0.495-0.57 0.666-0.19 0.189-0.389 0.396-0.168 0.776 0.222 0.381 0.984 1.626 2.115 2.633 1.454 1.295 2.677 1.696 3.058 1.888 0.381 0.191 0.602 0.159 0.824-0.096 0.222-0.253 0.951-1.109 1.204-1.49s0.507-0.317 0.856-0.19c0.349 0.126 2.219 1.047 2.598 1.237 0.381 0.191 0.634 0.285 0.728 0.443 0.095 0.157 0.095 0.919-0.223 1.807z"></path>
</symbol>
<symbol id="icon-whatsupp" viewBox="0 0 32 32">
<path fill="#fff" style="fill: var(--color2, #fff)" d="M25.436 6.571c-2.776-2.777-6.563-4.179-10.539-3.859-5.345 0.429-10.031 4.147-11.599 9.275-1.12 3.664-0.649 7.489 1.175 10.649l-1.728 5.737c-0.165 0.551 0.337 1.069 0.893 0.921l6.005-1.609c1.945 1.061 4.135 1.62 6.364 1.621h0.005c5.593 0 10.761-3.421 12.549-8.721 1.741-5.168 0.453-10.431-3.127-14.015zM22.531 20.739c-0.277 0.777-1.636 1.527-2.247 1.581-0.611 0.056-1.183 0.276-3.993-0.832-3.383-1.333-5.519-4.801-5.684-5.023-0.167-0.223-1.359-1.804-1.359-3.441s0.86-2.443 1.165-2.775c0.305-0.333 0.665-0.416 0.888-0.416 0.221 0 0.444 0 0.637 0.008 0.237 0.009 0.5 0.021 0.749 0.575 0.296 0.659 0.943 2.304 1.025 2.471s0.139 0.361 0.028 0.583c-0.111 0.221-0.167 0.36-0.332 0.555-0.167 0.195-0.349 0.433-0.499 0.583-0.167 0.165-0.34 0.347-0.147 0.679 0.195 0.333 0.861 1.423 1.851 2.304 1.272 1.133 2.343 1.484 2.676 1.652 0.333 0.167 0.527 0.139 0.721-0.084 0.195-0.221 0.832-0.971 1.053-1.304s0.444-0.277 0.749-0.167c0.305 0.111 1.941 0.916 2.273 1.083 0.333 0.167 0.555 0.249 0.637 0.388 0.083 0.137 0.083 0.804-0.195 1.581z"></path>
</symbol>
</defs>
</svg>
